REM DIRINDEX 1\2,1\4,1\3\5,1\3\6,1\3\7
REM DIRNAME cjc082,folder01,folder02,folder03,folder04,folder05,folder06
TITLE ""
FILE "CD1Track30.mp3" MP3
  TRACK 01 AUDIO
    TITLE "0:"
    INDEX 01 00:00:00
  TRACK 02 AUDIO
    TITLE "5:cjc082_0506"
    INDEX 01 00:00:31
  TRACK 03 AUDIO
    TITLE "0:"
    INDEX 01 00:01:50
  TRACK 04 AUDIO
    TITLE "6:cjc082_0507"
    INDEX 01 00:02:20
  TRACK 05 AUDIO
    TITLE "0:"
    INDEX 01 00:06:26
  TRACK 06 AUDIO
    TITLE "5:cjc082_0508"
    INDEX 01 00:06:71
  TRACK 07 AUDIO
    TITLE "0:"
    INDEX 01 00:08:05
  TRACK 08 AUDIO
    TITLE "6:cjc082_0509"
    INDEX 01 00:08:52
  TRACK 09 AUDIO
    TITLE "0:"
    INDEX 01 00:09:47
  TRACK 10 AUDIO
    TITLE "5:cjc082_0510"
    INDEX 01 00:10:19
  TRACK 11 AUDIO
    TITLE "0:"
    INDEX 01 00:11:58
  TRACK 12 AUDIO
    TITLE "6:cjc082_0511"
    INDEX 01 00:12:28
  TRACK 13 AUDIO
    TITLE "0:"
    INDEX 01 00:13:73
  TRACK 14 AUDIO
    TITLE "5:cjc082_0512"
    INDEX 01 00:14:43
  TRACK 15 AUDIO
    TITLE "0:"
    INDEX 01 00:15:50
  TRACK 16 AUDIO
    TITLE "6:cjc082_0513"
    INDEX 01 00:16:20
  TRACK 17 AUDIO
    TITLE "0:"
    INDEX 01 00:18:60
  TRACK 18 AUDIO
    TITLE "5:cjc082_0514"
    INDEX 01 00:19:26
  TRACK 19 AUDIO
    TITLE "0:"
    INDEX 01 00:20:36
  TRACK 20 AUDIO
    TITLE "6:cjc082_0515"
    INDEX 01 00:21:09
  TRACK 21 AUDIO
    TITLE "0:"
    INDEX 01 00:23:51
  TRACK 22 AUDIO
    TITLE "5:cjc082_0516"
    INDEX 01 00:24:22
  TRACK 23 AUDIO
    TITLE "0:"
    INDEX 01 00:25:58
  TRACK 24 AUDIO
    TITLE "6:cjc082_0517"
    INDEX 01 00:26:32
  TRACK 25 AUDIO
    TITLE "0:"
    INDEX 01 00:28:37
  TRACK 26 AUDIO
    TITLE "5:cjc082_0518"
    INDEX 01 00:29:03
  TRACK 27 AUDIO
    TITLE "0:"
    INDEX 01 00:30:06
  TRACK 28 AUDIO
    TITLE "6:cjc082_0519"
    INDEX 01 00:30:54
  TRACK 29 AUDIO
    TITLE "0:"
    INDEX 01 00:33:32
  TRACK 30 AUDIO
    TITLE "5:cjc082_0520"
    INDEX 01 00:34:04
  TRACK 31 AUDIO
    TITLE "0:"
    INDEX 01 00:35:29
  TRACK 32 AUDIO
    TITLE "6:cjc082_0521"
    INDEX 01 00:36:01
  TRACK 33 AUDIO
    TITLE "0:"
    INDEX 01 00:38:12
  TRACK 34 AUDIO
    TITLE "5:cjc082_0522"
    INDEX 01 00:38:57
  TRACK 35 AUDIO
    TITLE "0:"
    INDEX 01 00:40:48
  TRACK 36 AUDIO
    TITLE "6:cjc082_0523"
    INDEX 01 00:41:22
  TRACK 37 AUDIO
    TITLE "0:"
    INDEX 01 00:43:39
  TRACK 38 AUDIO
    TITLE "5:cjc082_0524"
    INDEX 01 00:44:12
  TRACK 39 AUDIO
    TITLE "0:"
    INDEX 01 00:45:30
  TRACK 40 AUDIO
    TITLE "6:cjc082_0525"
    INDEX 01 00:46:04
  TRACK 41 AUDIO
    TITLE "0:"
    INDEX 01 00:47:15
  TRACK 42 AUDIO
    TITLE "5:cjc082_0526"
    INDEX 01 00:47:58
  TRACK 43 AUDIO
    TITLE "0:"
    INDEX 01 00:49:21
  TRACK 44 AUDIO
    TITLE "6:cjc082_0527"
    INDEX 01 00:49:65
  TRACK 45 AUDIO
    TITLE "0:"
    INDEX 01 00:51:07
  TRACK 46 AUDIO
    TITLE "5:cjc082_0528"
    INDEX 01 00:51:58
  TRACK 47 AUDIO
    TITLE "0:"
    INDEX 01 00:53:31
  TRACK 48 AUDIO
    TITLE "6:cjc082_0529"
    INDEX 01 00:54:03
  TRACK 49 AUDIO
    TITLE "0:"
    INDEX 01 00:56:08
  TRACK 50 AUDIO
    TITLE "5:cjc082_0530"
    INDEX 01 00:56:49
  TRACK 51 AUDIO
    TITLE "0:"
    INDEX 01 00:57:70
  TRACK 52 AUDIO
    TITLE "6:cjc082_0531"
    INDEX 01 00:58:36
  TRACK 53 AUDIO
    TITLE "0:"
    INDEX 01 01:00:21
  TRACK 54 AUDIO
    TITLE "5:cjc082_0532"
    INDEX 01 01:00:70
  TRACK 55 AUDIO
    TITLE "0:"
    INDEX 01 01:02:26
  TRACK 56 AUDIO
    TITLE "6:cjc082_0533"
    INDEX 01 01:03:00
  TRACK 57 AUDIO
    TITLE "0:"
    INDEX 01 01:05:03
  TRACK 58 AUDIO
    TITLE "5:cjc082_0534"
    INDEX 01 01:05:48
  TRACK 59 AUDIO
    TITLE "0:"
    INDEX 01 01:06:67
  TRACK 60 AUDIO
    TITLE "6:cjc082_0535"
    INDEX 01 01:07:41
  TRACK 61 AUDIO
    TITLE "0:"
    INDEX 01 01:08:42
  TRACK 62 AUDIO
    TITLE "7:cjc082_0536"
    INDEX 01 01:10:02
  TRACK 63 AUDIO
    TITLE "0:"
    INDEX 01 01:21:31
